/* XPM */
static char *_7eac5855f234a79fa890140f21b2e2b[] = {
/* columns rows colors chars-per-pixel */
"32 32 72 1 ",
"  c #030303",
". c #070807",
"X c #080807",
"o c #080708",
"O c #070808",
"+ c #0B0C0B",
"@ c #0F100F",
"# c #10100F",
"$ c #0F0E10",
"% c #0F1010",
"& c #131313",
"* c #171718",
"= c #171818",
"- c #1B1C1B",
"; c #1F201F",
": c #1F1E20",
"> c #1F2020",
", c #232424",
"< c #272828",
"1 c #2C2C2C",
"2 c #2F3030",
"3 c #333434",
"4 c #373738",
"5 c #393739",
"6 c #373838",
"7 c #3B3C3C",
"8 c #413F41",
"9 c #3F4040",
"0 c #434344",
"q c #474847",
"w c #474748",
"e c #484649",
"r c #474848",
"t c #4B4B4C",
"y c #4F4F50",
"u c #514F51",
"i c #4F5050",
"p c #535354",
"a c #575658",
"s c #595659",
"d c #575958",
"f c #5C5B5C",
"g c #615E61",
"h c #636464",
"j c #686668",
"k c #676868",
"l c #6C6C6C",
"z c #706D70",
"x c #6F7070",
"c c #737474",
"v c #797779",
"b c #777878",
"n c #7C7C7C",
"m c #817F81",
"M c #7F8080",
"N c #848384",
"B c #888688",
"V c #8D8D8D",
"C c #938F93",
"Z c #949394",
"A c #9B9A9C",
"S c #A4A4A5",
"D c #A8A6A9",
"F c #ACAAAC",
"G c #B1AEB1",
"H c #BDBABD",
"J c #C3C3C3",
"K c #CCCACC",
"L c #D9D8D9",
"P c #E0DFE0",
"I c gray96",
"U c None",
/* pixels */
"UUUUUUUUUUUUUbM&JSbUUUUUUUUUUUUU",
"UUUUUUUUUU24tcq@SAbr61UUUUUUUUUU",
"UUUUUUUU6213rg0qVAxq6126UUUUUUUU",
"UUUUUUUi7213rd63fZxr3127iUUUUUUU",
"UUUUUUci72=16i&--lxq31;7pkUUUUUU",
"UUUUUnht7-+3,7=-=;dq31;&0lNUUUUU",
"UUUUZcck6.&3,&=-;&,9311.ibhMUUUU",
"UUUNZVc2; =31+7,&-=23<3.<cNANUUU",
"UUcMVnf@. -24.0glNmy2-1o=cNVncUU",
"UUcnVniO  ;2uCHFn31,1,- ;lnVncUU",
"UpxbNbd@. ;NAZja3#&<25. 2hcNbxdU",
"UykcMxh;  1Hs07-  o:s8..7gxMxkiU",
"Urffnxf9+ fK0ff lN3:1w*%9fknxhqU",
"7qhbxld0<.zH9f3-PIF--7z,9dkblhq7",
"70idxhp91;BG*yuvDDS:.+hp6dhcfq96",
"49nNbhp71;NA,,-cJJ0o =<Ffqflkxp6",
"37t2--231-zgor&&SL7&,::jGu8eghy2",
"33@+@+X+-:ss&:01pm=3,::1Dv++-702",
"1@o+++X  #8Nj+% *:&3:-$ogZ-++o12",
"U X.+X    <Cs      o:75hmZ:+o.%U",
"U ..oo@@:+-N2o      +:fcy,.Oo. U",
"U ....-;-**73.     oo-1-*%..X. U",
"UU +2i-%-**8,       &&&-%%-@. UU",
"UU %7g7,%$-fwoo+1   -#%#-123o UU",
"UUU-,r1-&&%4w1#%,1,=%%%&,<1-@UUU",
"UUU11,-&%$%@8#ejo5e-%%%=2y<,UUUU",
"UUUU,--&@@&&cjsV@*&&%@+&,1;,UUUU",
"UUUUU-&%@o173fs0o,%%+++@---UUUUU",
"UUUUUU@+o%w-*uu1t20@oo+oo%UUUUUU",
"UUUUUUUUo...o577s37  ...UUUUUUUU",
"UUUUUUUUUU   :---&$   UUUUUUUUUU",
"UUUUUUUUUUUUU1$   .UUUUUUUUUUUUU"
};
