/* XPM */
static char *_b49bbe381bd431ec62eac166b4bb1e9[] = {
/* columns rows colors chars-per-pixel */
"16 16 162 2 ",
"   c black",
".  c #000101",
"X  c #010101",
"o  c #050405",
"O  c gray2",
"+  c #060606",
"@  c #060706",
"#  c #070607",
"$  c #070707",
"%  c gray3",
"&  c #080908",
"*  c #080909",
"=  c #090909",
"-  c #0A0B0A",
";  c #0B0B0B",
":  c #0C0C0B",
">  c #0C0C0C",
",  c #0C0D0D",
"<  c #0E0E0E",
"1  c gray6",
"2  c #0F1010",
"3  c #101010",
"4  c #111011",
"5  c #111111",
"6  c #111212",
"7  c gray7",
"8  c #121313",
"9  c #131313",
"0  c #131413",
"q  c #131414",
"w  c gray8",
"e  c #141415",
"r  c #151515",
"t  c #151416",
"y  c gray9",
"u  c #171818",
"i  c #181819",
"p  c #191919",
"a  c #191A19",
"s  c #1A1A19",
"d  c #1A1B1A",
"f  c #1B1B1B",
"g  c #1B1B1C",
"h  c gray11",
"j  c #1C1D1C",
"k  c #1D1C1D",
"l  c #1E1E1E",
"z  c #1E1E1F",
"x  c #1E1F1F",
"c  c gray12",
"v  c #1F201F",
"b  c #1F2020",
"n  c #202020",
"m  c #202121",
"M  c gray13",
"N  c #212221",
"B  c #222222",
"V  c #232223",
"C  c #222323",
"Z  c #232424",
"A  c #252425",
"S  c #242525",
"D  c #252625",
"F  c #252626",
"G  c #262726",
"H  c #272726",
"J  c #272627",
"K  c #262727",
"L  c #282728",
"P  c #282828",
"I  c #282929",
"U  c gray16",
"Y  c #2C2C2D",
"T  c #2D2D2D",
"R  c #2D2C2E",
"E  c #2D2E2F",
"W  c #2E2F2F",
"Q  c #2F2F2F",
"!  c gray19",
"~  c #303130",
"^  c #303131",
"/  c #313131",
"(  c #323133",
")  c #313232",
"_  c #323232",
"`  c #323333",
"'  c gray20",
"]  c #333334",
"[  c #333434",
"{  c #343434",
"}  c #343534",
"|  c #353435",
" . c #343535",
".. c #353535",
"X. c #353636",
"o. c gray21",
"O. c #373737",
"+. c #393739",
"@. c gray22",
"#. c #3A393A",
"$. c #3B3A3C",
"%. c #3D3E3E",
"&. c #3E3E3E",
"*. c #3F3F3F",
"=. c #3F4040",
"-. c #434243",
";. c #424343",
":. c #434443",
">. c #444344",
",. c #444545",
"<. c gray27",
"1. c #454646",
"2. c #464746",
"3. c #474848",
"4. c #494A4A",
"5. c #4A4A4B",
"6. c #4B4B4B",
"7. c #4C4B4D",
"8. c #4C4D4D",
"9. c #4E4E4F",
"0. c gray31",
"q. c #515152",
"w. c #525353",
"e. c #535353",
"r. c #545554",
"t. c #555555",
"y. c #555656",
"u. c #5A5B5B",
"i. c #5D5B5D",
"p. c #5B5C5C",
"a. c #5E5C5E",
"s. c #5F5C5F",
"d. c #5D5E5E",
"f. c gray38",
"g. c #626162",
"h. c #626363",
"j. c #646364",
"k. c #636464",
"l. c #676868",
"z. c #6C6A6C",
"x. c #6D6D6E",
"c. c #6D6E6E",
"v. c #6F7070",
"b. c #787778",
"n. c #787979",
"m. c #79797A",
"M. c gray48",
"N. c gray50",
"B. c #7F7D80",
"V. c #808180",
"C. c #828283",
"Z. c #838383",
"A. c gray52",
"S. c #868486",
"D. c gray54",
"F. c #8C8A8C",
"G. c #8D8B8C",
"H. c #8C8D8D",
"J. c #989798",
"K. c #999899",
"L. c #A09EA0",
"P. c None",
/* pixels */
"P.P.P.P.P.P.p.t.H.i.P.P.P.P.P.P.",
"P.P.P.P. .^ 0.:.V.p./ [ P.P.P.P.",
"P.P.A.p./ n Q n [ w./ Z t.H.P.P.",
"P.P.D.w.d Z d H d P Q b r.V.P.P.",
"P.m.Z.[ * I 5.b.j.;.J y ;.Z.n.P.",
"P.c.m.@.@ i.z.7.4 d +.4 1.n.c.P.",
"1.f.v.3.l F.5.&.L.*.( Q 3.c.f.1.",
"=.f.k.1.[ A.J w.J.&.8 i.0.l.k.;.",
"@.} F F R a.g  .J.I l ;.B.Q 0.&.",
"5 & - o * s.| $ 4 8 L +.F.d * v ",
"P.& 3 y y +.l     o 4 $.n o $ P.",
"P.0 1.c y / n * % o y q d F : P.",
"P.P./ v 4 l Q  .F n 2 q  .J P.P.",
"P.P.l 4 4 n i.f.l q , 4 n n P.P.",
"P.P.P., , d A >.] g * * , P.P.P.",
"P.P.P.P.P.  t i t $   P.P.P.P.P."
};
