/* XPM */
static char *_bc10e066d144482933f0dae6884e890[] = {
/* columns rows colors chars-per-pixel */
"64 64 103 2 ",
"   c #030303",
".  c #070807",
"X  c #080807",
"o  c #070708",
"O  c #070808",
"+  c #0B0B0B",
"@  c #0F100F",
"#  c #100F10",
"$  c #0F1010",
"%  c #131313",
"&  c #171817",
"*  c #181917",
"=  c #171718",
"-  c #171818",
";  c #1B1C1B",
":  c #1F201F",
">  c #20201F",
",  c #1F1F20",
"<  c #201F20",
"1  c #1F2020",
"2  c #232424",
"3  c #272827",
"4  c #282827",
"5  c #272728",
"6  c #282729",
"7  c #272828",
"8  c #2B2C2C",
"9  c #2F302F",
"0  c #2F2E30",
"q  c #302F30",
"w  c #2F3030",
"e  c #333434",
"r  c #373638",
"t  c #383639",
"y  c #373838",
"u  c #3B3C3C",
"i  c #3F403F",
"p  c #413E41",
"a  c #3F4040",
"s  c #444444",
"d  c #474548",
"f  c #484649",
"g  c #474848",
"h  c #4B4C4C",
"j  c #4F4F50",
"k  c #504E50",
"l  c #4F5050",
"z  c #535354",
"x  c #575857",
"c  c #575658",
"v  c #595659",
"b  c #575858",
"n  c #5B5C5C",
"m  c #605E60",
"M  c #5F6060",
"N  c #646464",
"B  c #696669",
"V  c #676868",
"C  c #6C6C6C",
"Z  c #6F6C70",
"A  c #716D71",
"S  c #6F7070",
"D  c #737474",
"F  c #7A767A",
"G  c #777878",
"H  c #7B7B7C",
"J  c #817E81",
"K  c #7F8080",
"L  c #838384",
"P  c #878488",
"I  c #898689",
"U  c #878888",
"Y  c #8B8B8B",
"T  c #8F8C90",
"R  c #918E91",
"E  c #939394",
"W  c #979698",
"Q  c #99969A",
"!  c #979898",
"~  c #9B9A9C",
"^  c #A19EA1",
"/  c #9FA1A0",
"(  c #A4A3A4",
")  c #AAA6AA",
"_  c #ACABAD",
"`  c #B2AEB2",
"'  c #B4B2B4",
"]  c #B9B6B9",
"[  c #BCBABC",
"{  c #C1BEC1",
"}  c #C5C3C5",
"|  c #C8C4C7",
" . c #C9C7C9",
".. c #CCCACC",
"X. c #D1CED1",
"o. c #D5D3D5",
"O. c #D9D7DA",
"+. c #DFDEDF",
"@. c #E2E2E3",
"#. c #EDECED",
"$. c #F4F3F4",
"%. c #FDFDFD",
"&. c None",
/* pixels */
"&.&.&.&.&.&.&.&.&.&.&.&.&.&.&.&.&.&.&.&.&.&.&.&.&.&.&.&.&.&.&.&.&.&.&.&.&.&.&.&.&.&.&.&.&.&.&.&.&.&.&.&.&.&.&.&.&.&.&.&.&.&.&.&.",
"&.&.&.&.&.&.&.&.&.&.&.&.&.&.&.&.&.&.&.&.&.&.&.&.&.l N K _ G @ . @.{ _ / K N x &.&.&.&.&.&.&.&.&.&.&.&.&.&.&.&.&.&.&.&.&.&.&.&.&.",
"&.&.&.&.&.&.&.&.&.&.&.&.&.&.&.&.&.&.&.&.&.&.w w a g b V C @ @ X K N / E D n h u e w &.&.&.&.&.&.&.&.&.&.&.&.&.&.&.&.&.&.&.&.&.&.",
"&.&.&.&.&.&.&.&.&.&.&.&.&.&.&.&.&.&.&.w 8 e y u j x V ! z a % . ' [ ] ~ H V x g u u e 8 w &.&.&.&.&.&.&.&.&.&.&.&.&.&.&.&.&.&.&.",
"&.&.&.&.&.&.&.&.&.&.&.&.&.&.&.&.&.e w 7 3 8 w e s j M K u M l : H } _ Y S n l i y e 7 2 8 9 e &.&.&.&.&.&.&.&.&.&.&.&.&.&.&.&.&.",
"&.&.&.&.&.&.&.&.&.&.&.&.&.&.&.j a y e 9 7 e e y g z S z 2 g C s h [ / E D N l g y y 9 7 w e y a l &.&.&.&.&.&.&.&.&.&.&.&.&.&.&.",
"&.&.&.&.&.&.&.&.&.&.&.&.&.&.N j i y e 8 8 e y u h x D y 9 3 z e e _ ) Y S N x a u y e 7 w e y a l x &.&.&.&.&.&.&.&.&.&.&.&.&.&.",
"&.&.&.&.&.&.&.&.&.&.&.&.&.N b s y e w 8 7 9 7 e g a N u s 3 3 3 9 g _ K N n l a e y 7 2 8 w w i h z V &.&.&.&.&.&.&.&.&.&.&.&.&.",
"&.&.&.&.&.&.&.&.&.&.&.T K C M z a u y e 8 @ 5 u z > C e @ ; ; 2 ; % G E S V x a i y w 8 1 e u a l M N G U &.&.&.&.&.&.&.&.&.&.&.",
"&.&.&.&.&.&.&.&.&.&.T T K N n l u e e 8 +   9 u h   V y @ ; * > : @ : E C N l i e e 8 3 2   8 g h x M z U E &.&.&.&.&.&.&.&.&.&.",
"&.&.&.&.&.&.&.&.&.! L H l 8 3 i u e e @   + w y i   g h @ % * ; ; % @ g G n l i e e 8 3 9 +   y h h l C C K ! &.&.&.&.&.&.&.&.&.",
"&.&.&.&.&.&.&.&.~ ~ U N L U G l y u 3     * y i y   * h @ * * : : ; * @ l n x g y y 9 7 e :   $ e n S L ( U ! &.&.&.&.&.&.&.&.&.",
"&.&.&.&.&.&.&.&.E Y V V D G G K 9 u +     : e y 9 . . % % % * ; ; * * @ @ a i a e e 7 2 w 7   + n S z E H h M T &.&.&.&.&.&.&.&.",
"&.&.&.&.&.&.&.Y ! ! K E l n D V i u       3 e i e . + @ @ 8 * ; : * * % + 2 9 g y y w 7 w y     8 C K _ H V S H U &.&.&.&.&.&.&.",
"&.&.&.&.&.&.U Y ! Y E E E i i 4 9 5       w e y u   + @ + D * ; ; * * % @ . + g y e 8 3 w y O   @ x K n z K ] ( L U &.&.&.&.&.&.",
"&.&.&.&.&.G G H U L D ~ ! ! h X % *       e 9 e s . . @ . E > @ % @ @ . . . . i e w 3 2 8 e $   . g V G G ( ! U G G G &.&.&.&.&.",
"&.&.&.&.&.K U U ! ! K Y U H   . . .       y e y z @ + @ . / s . . @ 8 Z f 8 % q t e & , w u # . . g S Y _ Y E ! U U K &.&.&.&.&.",
"&.&.&.&.C G H H Y L D G D l   . .       . 9 9 e s 5     X K L A ^ ` [ ` ] [ ^ p i 7 ;   2 t +     i N C U D K L G H G V &.&.&.&.",
"&.&.&.&.S G H K Y Y G K G i . . . .       e e e s s e B ^ ] ' {  .] W f s m z < q u 8 X # u   . . g N D G G Y Y H K G C &.&.&.&.",
"&.&.&.n S D H H Y Y G K G a . .           e 9 8 c F ~ ) { ] ) ~ A 0 # o = t e ; 5 e < 5 + ;   . . h M S K D Y Y H K G V n &.&.&.",
"&.&.&.z N C S D K K C G V l   . .         2 M N ~ z I ( _ P z e s @ % @ + + = = + 2 ; t .       @ l n V D C H H S D S M l &.&.&.",
"&.&.&.x S G H K Y L D K D C @ . .         2 ` o.X.^ ) H f < u E j @ . ; ; @ + n j q v e o     . ; n M S H G Y U G K H V n &.&.&.",
"&.&.g l N S D S L K S G V n e             i ' ] H Z u 2 q . ; 9         . % o 2 m B m 6         9 z b V D S H K D G S M z g &.&.",
"&.&.s z N C C C H H C S V n l @           C  .' e @ 5 c L e .     +         o 2 0 n A ; +     . s l x N C V H H C S C M l h &.&.",
"&.&.g l N C D S K L S D V z x y           ^ o.[ f 8 v N H n     2 N s w +     w w w B q =     # s h n V G C K K S D S M z g &.&.",
"&.u a g b l h n S D V V n l l a &       o { ..` d 8 j z D 2     v { X.X.N o   7 w 2 t v q o   2 i s z M V N S G V V V b h i y &.",
"&.i g h h l N l V G V D M z h s e &     % {  .) f 4 l n C .   ; ] %.%.$.} v . ; u & = F R t o e s g x M C V G G C S C n l s i &.",
"&.u i g n ~ / ( D S V C n l g i w w ;   0  .{ Q f > l n c +   u #.%.%.$...D o 2 w     0 ` Q < 6 i s l n V V D D V V V x g s e &.",
"&.u i s b b n V H V M V b h s y w 8 7 ; s  .{ Y ; @ u n z H < ' #.] [ #...Z   u %       d B v ; e s l x M n V C n g s u 9 u e &.",
"&.u u g z g l s S D M C n h s i 9 8 7 ; k } ] F +   @ h s R N O.Q = = [ P 9   w         2 ~ ] v : s l n N V D G V M l s l s u &.",
"&.e e i D E E L G V z n l s i e 7 5 2 % k [ ^ J 5     + % n P ]  .N n #.;     +       # ; k [ ~ 8 : h l x x N V z ! T L Y y w &.",
"&.u i g D D H L K D V V n l g i w 9 2 ; h ' ^ P 2 2 s 5 + @ j A #.$.%.%.u + o X   . ; 2 2 ; ~ } E e e b M M C S n C N M z u y &.",
"&.e u i x M M x h y i b x j s y 7 6 2 = p ` T z + % j m 2   @ & _ $.%.%.c   .   + 2 2 ; 1 - z [ ] F 2 d N m C C N n N D i u w &.",
"&.e y i l i : . X X   X % > e y 9 5 2 = 8 ) A #     w n @   9   s o.#. .4   # < 5 7 1 ; 1 ; 1 E ..( m 8 9 2 9 u f Y V l G e w &.",
"&.y i s > . + + @ @ + + X . . @ 7 9 2 ; < ) v = .   = s   h H . X ) { n   ; u e 7 5 2 ; 2 1 ; f { { Q c @ X + X . 3 z l s u w &.",
"&.9 e * . . + + @ + X + . .       & 2 = # ^ Z p ; @ , + 0 H p     Q X.4 . u u 7 , 2 ; = ; 2 ; % Q ..] e . + + + + . + i u w 8 &.",
"&.y 9   X + + + + @ X + X .   X     % ; @ I J J T e 6   ; &       e u +   i u 9 2 2 < ; < =     B { ..Q < = + @ X + . + u y 9 &.",
"&.e @   X X + + @ X X + . .           % # Z P T ^ q           o   =       5 u 9 6 < ; = # o o o < D P ] h   + + + + .   * y 9 &.",
"&.-     . . . + + X X X X .             @ f T P A s                       . + @ # % 6 e d r p v c ` | ] m + + + . + . .   8 9 &.",
"&.&.    . . + + + + X + X   .     .     X e ^ Q z c                               e B k < , k J Y J ~ B = o + + + X + .   ; &.&.",
"&.&.    . . X + + X X         X ; 2 +     ; ) P n +   o                           2 r + = W E ' ~ A t =   . + + . . .     + &.&.",
"&.&.  .   . . . X X . % 9 2   ; 5 , ; .   = ^ h e o q                         + .     , m A v p < %   X . . X o X . . .     &.&.",
"&.&.&.    . . . + X     + 9 8 % ; ; ; %   # B % + N ,                         = o . + 2 8 8 1 = + ; 9 %   . X X . .       &.&.&.",
"&.&.&.    . .       . @     5 2 ; ; * * # o q = n >                           @ . = 6 2 2 - % @ < 5 o       . . . . .     &.&.&.",
"&.&.&.    X .   O 5 g l ;   O ; 2 ; & & & % ; C w                             . + = ; % % = = 2 2 o     + .       . .     &.&.&.",
"&.&.&.&.      4 z N S z 9 ; $   % = & & % # z v 2                               # ; % $ = % - -     & 9 u u 8 +   .     &.&.&.&.",
"&.&.&.&.      9 N z V d 5 e 2 ; o + # % % + m C n             X k               % = % # % % # . @ ; 5 8 9 9 u 8   .     &.&.&.&.",
"&.&.&.&.&.    ; a l V u i N w , ; % @ + + + v ( v o   . %     ; l               & = & % $ O O = 1 2 5 7 9 9 u u .     &.&.&.&.&.",
"&.&.&.&.&.& @   ; d N j e : ; ; = % % % $ + v I b . ; 0 %     + d   @ &   O #   O $ + O $ $ % - & % & 2 7 7 e ;       &.&.&.&.&.",
"&.&.&.&.&.&.w 9 7 2 l 8 2 : : ; % % % % $ $ % 7 N y t ; @ X 9   u   @ F @ Z v   O ; % $ % % % % e j e 2 3 7 ; + - 7 &.&.&.&.&.&.",
"&.&.&.&.&.&.&.7 8 7 7 7 1 ; - - % % # # $ $ $ % 2 = %   + h J > %   < B % F e o + % $ + $ $ $ ; e v C s 7 2 2 8 7 &.&.&.&.&.&.&.",
"&.&.&.&.&.&.&.2 5 2 1 2 ; - - % $ # # @ + $ + ; F r = # < ( @.r +   6 u 6 h ; % $ $ # + $ + # 5 ; & V v e : 5 2 2 &.&.&.&.&.&.&.",
"&.&.&.&.&.&.&.&.2 1 1 1 ; - & % # # # @ @ @ + o A O.` e Z B +.m 2   & % , - % % $ $ @ + # # # 2 @ $ 3 N 7 ; 5 2 &.&.&.&.&.&.&.&.",
"&.&.&.&.&.&.&.&.&.: ; ; ; % % % @ @ @ + + 7 ; + 8 ) ' h 9 C ' h #   . ; + + % $ $ @ + + + + + $ e e w 9 ; ; 1 &.&.&.&.&.&.&.&.&.",
"&.&.&.&.&.&.&.&.&.&.- ; - % $ % @ + @ + + u z 9 # P P s 8 C H ;     + = O $ $ $ + $ + + + + + @ : s * % - - &.&.&.&.&.&.&.&.&.&.",
"&.&.&.&.&.&.&.&.&.&.&.% % % $ $ + + + + . m s @ o d F P r M v     . k 6 % $ $ # + + + + + + + @ @ $ % % & &.&.&.&.&.&.&.&.&.&.&.",
"&.&.&.&.&.&.&.&.&.&.&.&.% + $ $ + + O % u N 5 + o 6 N B e t d = e j s ; n 7 @ + + + O O + + + + + + $ % &.&.&.&.&.&.&.&.&.&.&.&.",
"&.&.&.&.&.&.&.&.&.&.&.&.&.&.O @ + + + + 9 s ;     ; p d d e t t H j 7 # B i % X O + O o + . o + . + &.&.&.&.&.&.&.&.&.&.&.&.&.&.",
"&.&.&.&.&.&.&.&.&.&.&.&.&.&.&.. + O + O . + +     # m < p u 2 c F c 7 # n s +     + . . . . . .   &.&.&.&.&.&.&.&.&.&.&.&.&.&.&.",
"&.&.&.&.&.&.&.&.&.&.&.&.&.&.&.&.&.  .             # f 4 e 4 = k h s l u j %               .   &.&.&.&.&.&.&.&.&.&.&.&.&.&.&.&.&.",
"&.&.&.&.&.&.&.&.&.&.&.&.&.&.&.&.&.&.              + # , < 8 = 6 q o & , .                   &.&.&.&.&.&.&.&.&.&.&.&.&.&.&.&.&.&.",
"&.&.&.&.&.&.&.&.&.&.&.&.&.&.&.&.&.&.&.&.&.        X o 8 8 = o +   +   %               &.&.&.&.&.&.&.&.&.&.&.&.&.&.&.&.&.&.&.&.&.",
"&.&.&.&.&.&.&.&.&.&.&.&.&.&.&.&.&.&.&.&.&.&.&.&.+ . # ; e     o o   . @         &.&.&.&.&.&.&.&.&.&.&.&.&.&.&.&.&.&.&.&.&.&.&.&.",
"&.&.&.&.&.&.&.&.&.&.&.&.&.&.&.&.&.&.&.&.&.&.&.&.&.&.&.&.&.+   o       &.&.&.&.&.&.&.&.&.&.&.&.&.&.&.&.&.&.&.&.&.&.&.&.&.&.&.&.&."
};
